 <svg  version="1.0" xmlns="http://www.w3.org/2000/svg"  width="900.000000pt" height="900.000000pt" viewBox="0 0 900.000000 900.000000"  preserveAspectRatio="xMidYMid meet">  <g transform="translate(0.000000,900.000000) scale(0.100000,-0.100000)" fill="#ffffff" stroke="none"> <path d="M3660 8990 c0 -5 -26 -26 -57 -46 -32 -20 -71 -48 -86 -63 -44 -40 -97 -125 -97 -154 0 -14 -5 -29 -11 -32 -7 -5 -9 -44 -5 -119 7 -161 58 -288 168 -423 193 -236 401 -337 590 -286 31 9 63 13 71 10 9 -3 17 -27 22 -62 4 -32 15 -77 26 -102 20 -47 123 -163 145 -163 7 0 22 -9 32 -21 72 -77 287 -118 445 -84 74 15 150 46 163 66 3 5 13 9 22 9 21 0 132 100 132 119 0 7 11 26 24 42 34 41 51 128 36 188 -6 25 -19 57 -27 71 -107 167 -284 260 -493 260 -69 0 -204 -23 -224 -39 -6 -4 -23 -11 -38 -15 -15 -3 -32 -15 -38 -26 -6 -11 -17 -20 -25 -20 -20 0 -32 52 -39 159 -4 75 -9 101 -26 123 -11 16 -19 32 -16 37 12 19 -56 155 -118 236 -29 38 -100 118 -121 136 -68 60 -123 97 -188 129 -88 44 -109 58 -101 71 3 5 -33 9 -80 9 -49 0 -86 -4 -86 -10z m211 -170 c109 -56 235 -167 292 -257 76 -120 127 -261 127 -351 0 -83 -64 -212 -106 -212 -6 0 -17 -7 -25 -16 -10 -12 -29 -15 -93 -11 -126 6 -220 54 -331 169 -82 85 -112 124 -147 193 -60 119 -68 151 -68 274 0 85 4 112 18 136 27 44 78 89 109 97 49 12 182 -1 224 -22z m999 -750 c10 -5 31 -10 47 -10 15 0 37 -7 47 -15 11 -8 26 -15 33 -15 20 0 105 -65 133 -101 42 -56 49 -72 50 -116 1 -105 -110 -205 -273 -246 -193 -49 -423 25 -512 163 -87 136 19 281 250 343 64 17 190 16 225 -3z"/> <path d="M5856 8534 c-72 -14 -164 -55 -226 -99 -56 -40 -118 -104 -126 -128 -3 -12 -14 -31 -23 -42 -41 -48 -56 -157 -36 -250 20 -90 55 -146 151 -241 71 -71 152 -119 264 -158 74 -25 212 -37 299 -25 70 10 103 19 215 62 86 32 212 159 251 253 26 63 31 172 10 235 -40 122 -108 210 -218 283 -104 69 -138 84 -255 107 -108 22 -207 23 -306 3z m336 -130 c15 -8 33 -14 40 -14 7 0 42 -15 77 -32 63 -32 191 -146 191 -170 0 -6 8 -20 17 -30 13 -14 17 -39 17 -111 0 -84 -2 -96 -28 -136 -71 -112 -175 -171 -353 -202 -131 -22 -304 21 -434 107 -69 46 -96 75 -144 158 -24 41 -28 60 -28 120 0 61 4 81 28 125 33 60 97 120 159 151 23 11 46 20 50 20 4 0 22 7 39 15 18 8 57 16 87 18 92 6 253 -5 282 -19z"/> <path d="M2855 8090 c-81 -9 -210 -50 -275 -87 -58 -34 -158 -135 -194 -197 -32 -55 -38 -83 -39 -181 -1 -59 4 -80 32 -139 55 -113 214 -268 313 -305 61 -23 83 -33 113 -48 76 -38 285 -69 399 -58 89 8 226 42 246 60 9 8 38 24 65 36 88 39 184 146 226 251 27 69 25 167 -5 239 -41 102 -170 245 -256 286 -19 9 -39 22 -45 29 -11 14 -140 67 -207 85 -63 17 -217 39 -263 37 -22 0 -71 -4 -110 -8z m313 -136 c37 -9 79 -23 94 -30 14 -8 33 -14 40 -14 8 0 35 -11 59 -25 24 -13 58 -31 76 -41 53 -26 156 -135 186 -194 35 -71 37 -160 6 -222 -48 -95 -184 -187 -308 -210 -31 -5 -72 -14 -91 -20 -61 -17 -260 4 -365 39 -241 80 -415 248 -415 401 0 44 7 67 35 118 52 92 140 153 279 194 83 25 310 27 404 4z"/> <path d="M6800 7665 c-95 -14 -131 -26 -168 -55 -13 -11 -33 -20 -44 -20 -28 0 -101 -78 -135 -146 -34 -66 -42 -164 -17 -185 8 -6 14 -20 14 -31 0 -36 136 -187 169 -188 8 0 26 -11 40 -24 36 -34 175 -83 285 -101 117 -19 214 -19 290 1 34 8 77 19 96 24 87 23 207 135 248 230 33 80 -9 205 -102 302 -53 55 -207 148 -246 148 -12 0 -31 6 -43 14 -51 34 -263 51 -387 31z m324 -131 c146 -47 203 -76 272 -138 52 -46 94 -117 94 -157 0 -28 -39 -96 -69 -121 -23 -20 -63 -40 -136 -68 -11 -4 -58 -13 -103 -20 -139 -21 -354 17 -462 81 -8 5 -24 13 -35 18 -45 19 -123 102 -144 151 -21 50 -22 53 -6 100 22 65 79 112 185 151 65 24 332 26 404 3z"/> <path d="M1295 7073 c-95 -12 -256 -78 -325 -133 -21 -17 -41 -30 -45 -30 -15 0 -97 -86 -136 -143 -97 -142 -94 -262 12 -388 22 -27 47 -49 54 -49 7 0 18 -7 25 -15 16 -19 80 -49 139 -65 76 -20 257 -15 352 11 46 12 93 28 104 34 11 7 31 15 45 18 29 7 152 87 193 126 34 32 104 122 137 175 20 34 24 53 24 127 1 77 -2 90 -21 111 -13 13 -23 29 -23 35 0 13 -31 52 -75 95 -40 39 -124 77 -193 89 -55 9 -206 10 -267 2z m353 -153 c80 -42 114 -87 120 -156 11 -134 -123 -270 -363 -369 -97 -40 -310 -51 -401 -20 -108 36 -174 108 -174 190 0 87 73 199 170 261 68 43 84 53 100 60 8 3 29 12 45 19 103 44 164 54 315 51 121 -2 128 -4 188 -36z"/> <path d="M2430 6999 c-101 -27 -153 -61 -248 -159 -55 -56 -76 -97 -91 -179 -22 -111 9 -198 107 -300 42 -43 64 -60 75 -55 12 4 17 1 17 -12 0 -27 79 -59 175 -72 172 -24 307 19 420 132 92 92 123 154 130 257 5 66 3 89 -9 109 -9 14 -23 40 -31 58 -24 51 -133 156 -192 186 -59 30 -173 56 -236 55 -23 0 -76 -9 -117 -20z m197 -108 c115 -17 212 -82 259 -173 62 -122 -3 -263 -158 -345 -50 -27 -60 -28 -185 -28 -126 0 -134 1 -188 30 -120 62 -177 168 -153 281 6 27 18 60 26 74 59 95 182 161 317 168 11 1 48 -2 82 -7z"/> <path d="M7621 6990 c-29 -4 -88 -25 -129 -47 -88 -44 -153 -115 -201 -217 -26 -53 -31 -76 -31 -137 0 -93 16 -146 70 -231 53 -85 155 -170 245 -203 91 -34 207 -43 277 -20 29 10 67 24 83 33 39 20 135 101 135 114 0 5 15 28 34 49 43 50 60 113 61 215 0 73 -3 87 -38 156 -101 206 -301 319 -506 288z m159 -123 c152 -42 280 -194 280 -332 0 -96 -75 -215 -162 -257 -60 -29 -145 -51 -174 -45 -129 25 -204 65 -273 143 -68 77 -101 218 -67 288 9 19 16 39 16 44 0 15 100 122 114 122 7 0 18 6 24 12 34 34 161 47 242 25z"/> <path d="M1355 6178 c-94 -17 -157 -40 -299 -109 -113 -55 -176 -100 -258 -185 -87 -91 -128 -151 -165 -241 -28 -70 -33 -95 -33 -164 0 -68 5 -92 32 -157 27 -65 45 -90 113 -158 93 -93 159 -130 295 -164 73 -19 107 -21 245 -19 111 3 160 0 160 -7 0 -12 -45 -68 -105 -133 -53 -58 -99 -140 -122 -222 -17 -63 -20 -90 -14 -178 5 -92 10 -113 41 -176 41 -83 135 -187 215 -238 30 -20 96 -48 145 -64 123 -38 282 -39 395 -3 148 46 226 94 331 199 82 81 103 109 137 182 23 48 46 108 53 134 17 66 6 195 -20 245 -12 23 -21 49 -21 59 0 23 -74 123 -126 172 -36 33 -125 90 -184 116 -46 21 -156 43 -216 43 -32 0 -66 5 -74 10 -10 6 -20 4 -32 -6 -20 -19 -38 -11 -38 16 0 11 11 22 28 28 29 10 202 175 243 232 31 43 79 145 79 166 0 9 8 38 17 64 15 42 16 59 6 124 -14 97 -53 175 -123 246 -147 147 -289 201 -523 199 -73 -1 -154 -6 -182 -11z m336 -115 c7 -7 29 -13 49 -13 19 0 44 -7 54 -15 11 -8 26 -15 33 -15 16 0 110 -56 141 -84 41 -36 88 -119 102 -178 34 -146 -61 -324 -244 -462 -41 -31 -78 -56 -82 -56 -4 0 -15 -6 -23 -13 -9 -7 -36 -21 -61 -31 -25 -10 -58 -24 -75 -31 -41 -17 -136 -41 -216 -54 -206 -34 -427 16 -545 122 -28 26 -63 71 -79 104 -26 50 -30 69 -30 139 0 73 4 87 38 157 71 143 190 253 362 335 82 39 116 52 133 52 10 0 27 7 38 15 10 8 35 15 54 15 19 0 51 6 71 13 49 17 264 16 280 0z m397 -1090 c24 -6 49 -16 55 -22 6 -6 17 -11 24 -11 38 0 167 -117 205 -186 38 -68 56 -187 38 -248 -40 -137 -82 -207 -173 -286 -85 -74 -108 -87 -237 -135 -65 -25 -177 -34 -272 -24 -176 20 -315 112 -382 255 -32 66 -36 84 -36 152 1 153 86 306 223 398 23 16 44 31 47 34 5 5 45 24 113 54 21 9 48 16 60 16 12 0 29 5 37 10 18 13 238 7 298 -7z"/> <path d="M565 4229 c-89 -23 -164 -51 -186 -69 -12 -11 -30 -20 -39 -20 -22 0 -140 -120 -188 -191 -59 -86 -77 -154 -77 -284 0 -106 1 -112 37 -185 46 -95 181 -236 260 -273 177 -84 392 -72 545 29 184 121 293 298 293 473 0 125 -39 225 -132 338 -41 49 -118 113 -137 113 -5 0 -14 7 -21 15 -7 8 -22 15 -35 15 -12 0 -25 3 -29 7 -29 29 -220 49 -291 32z m217 -123 c147 -39 261 -147 302 -285 21 -71 20 -131 -3 -211 -79 -278 -407 -420 -670 -292 -65 32 -147 113 -183 178 -125 234 27 531 310 609 64 17 180 18 244 1z"/> <path d="M2540 4080 c-121 -32 -257 -156 -281 -256 -17 -74 -11 -151 16 -207 35 -74 107 -143 196 -187 103 -50 272 -6 370 97 78 82 94 122 94 233 0 84 -3 100 -25 135 -63 102 -184 185 -278 191 -32 2 -73 -1 -92 -6z m132 -117 c18 -9 47 -23 63 -31 38 -19 61 -46 86 -100 26 -60 24 -99 -11 -170 -30 -58 -46 -73 -129 -119 -30 -16 -169 -17 -196 0 -93 55 -127 107 -128 193 -1 87 41 157 118 196 103 53 142 59 197 31z"/> <path d="M8115 3743 c-16 -3 -49 -18 -73 -34 -24 -16 -48 -29 -53 -29 -22 0 -103 -97 -132 -158 -25 -54 -30 -76 -30 -141 0 -42 6 -95 13 -117 24 -79 83 -185 116 -212 19 -15 34 -32 34 -38 0 -10 86 -68 159 -108 50 -28 148 -33 207 -10 156 57 255 200 258 369 1 69 -3 91 -31 157 -17 43 -37 83 -43 90 -6 7 -20 29 -33 48 -29 44 -125 122 -191 154 -51 25 -142 38 -201 29z m173 -136 c88 -44 162 -131 199 -237 40 -113 18 -226 -59 -302 -26 -27 -54 -48 -62 -48 -9 0 -31 -8 -50 -17 -33 -15 -39 -15 -93 2 -89 27 -104 36 -159 90 -32 32 -64 78 -87 127 -32 66 -37 86 -37 146 0 46 6 85 19 114 20 48 67 108 84 108 6 0 18 6 26 14 47 40 142 42 219 3z"/> <path d="M1845 3323 c-89 -11 -320 -76 -330 -94 -4 -5 -12 -9 -20 -9 -8 0 -34 -14 -59 -30 -24 -17 -60 -37 -79 -45 -46 -19 -137 -87 -137 -102 0 -6 -15 -20 -32 -30 -50 -29 -152 -167 -204 -273 -80 -165 -65 -397 35 -529 114 -151 181 -207 317 -262 139 -56 168 -60 389 -62 152 0 176 2 230 22 33 12 79 26 102 31 54 12 228 98 296 146 128 92 255 238 315 364 48 102 56 137 56 255 1 133 -15 189 -82 290 -47 70 -155 185 -175 185 -5 0 -34 16 -63 35 -124 83 -375 131 -559 108z m324 -139 c18 -8 42 -14 52 -14 31 0 150 -60 212 -107 67 -52 125 -126 156 -202 21 -48 23 -67 19 -170 -4 -104 -7 -123 -35 -183 -18 -37 -53 -96 -79 -130 -52 -69 -149 -164 -176 -173 -10 -4 -18 -10 -18 -14 0 -4 -19 -18 -42 -30 -24 -12 -63 -33 -87 -47 -24 -13 -52 -24 -62 -24 -10 0 -20 -4 -23 -9 -3 -5 -29 -16 -58 -26 -159 -52 -378 -69 -508 -40 -122 27 -199 60 -280 121 -124 94 -180 191 -197 341 -5 42 23 170 49 228 29 64 94 153 154 211 65 62 206 164 228 164 7 0 17 5 24 12 12 12 59 31 122 50 19 5 39 14 45 19 5 5 22 9 38 9 15 0 38 5 50 11 54 29 347 31 416 3z"/> <path d="M7300 2781 c-79 -26 -188 -121 -231 -201 -20 -38 -24 -59 -23 -135 0 -122 23 -172 129 -277 91 -91 218 -117 321 -67 57 27 142 109 181 177 25 42 28 56 28 142 0 82 -4 102 -25 144 -36 70 -135 171 -194 197 -53 23 -146 33 -186 20z m108 -113 c77 -19 125 -55 161 -123 11 -22 21 -48 21 -58 0 -10 5 -27 10 -37 22 -41 -33 -176 -87 -216 -150 -110 -355 8 -357 206 -2 112 61 202 159 228 22 5 41 10 43 11 2 1 24 -4 50 -11z"/> <path d="M3443 2741 c-34 -10 -70 -24 -79 -32 -9 -8 -34 -23 -55 -34 -66 -35 -145 -92 -168 -121 -127 -162 -161 -240 -161 -379 0 -140 23 -217 100 -326 41 -60 151 -158 211 -189 229 -119 493 -81 694 100 44 39 92 88 107 108 34 47 88 148 88 166 0 7 6 18 13 24 16 14 21 142 8 222 -19 117 -97 250 -195 334 -30 25 -57 46 -61 46 -3 0 -21 11 -39 25 -18 14 -39 25 -47 25 -8 0 -23 6 -34 13 -59 39 -273 49 -382 18z m338 -124 c152 -54 246 -155 302 -322 30 -90 17 -178 -45 -302 -73 -144 -218 -245 -395 -272 -244 -39 -486 110 -542 333 -51 205 66 434 274 536 77 37 131 49 241 49 81 1 113 -4 165 -22z"/> <path d="M8073 2680 c-107 -52 -221 -176 -253 -275 -11 -33 -26 -78 -34 -100 -24 -63 -22 -388 3 -480 43 -161 121 -343 162 -380 10 -10 19 -22 19 -27 0 -17 102 -134 168 -191 164 -143 344 -181 497 -105 115 57 231 207 272 352 23 83 28 304 9 422 -55 346 -255 651 -503 771 -64 31 -82 35 -175 39 -99 4 -106 3 -165 -26z m241 -95 c11 -8 26 -15 34 -15 8 0 34 -13 59 -30 24 -16 48 -30 52 -30 20 0 154 -158 208 -245 46 -75 100 -215 123 -320 25 -114 28 -346 5 -439 -40 -158 -133 -265 -260 -299 -57 -16 -64 -16 -125 2 -36 10 -78 25 -95 32 -44 19 -139 93 -169 131 -14 18 -38 47 -52 65 -42 51 -87 131 -125 223 -66 157 -82 242 -82 425 0 175 13 243 67 340 39 68 98 125 162 155 50 23 170 26 198 5z"/> <path d="M4735 2503 c-100 -13 -233 -72 -298 -131 -72 -66 -108 -106 -128 -142 -11 -19 -23 -42 -28 -50 -47 -83 -51 -114 -25 -199 17 -58 69 -145 105 -176 40 -34 88 -65 100 -65 7 0 20 -6 28 -13 19 -17 126 -47 164 -47 43 0 43 -25 0 -61 -142 -120 -251 -254 -301 -369 -60 -140 -67 -174 -67 -350 0 -132 4 -177 19 -225 26 -86 77 -192 122 -254 51 -71 144 -171 159 -171 6 0 21 -13 33 -30 29 -38 179 -110 292 -140 72 -19 101 -22 190 -17 229 12 418 115 575 311 86 108 110 152 154 285 29 89 31 103 31 247 0 132 -3 163 -25 238 -39 136 -91 229 -172 310 -18 18 -33 37 -33 43 0 16 -93 93 -165 136 -90 55 -201 94 -314 111 -56 8 -105 17 -110 20 -5 3 21 36 57 73 72 75 126 153 148 215 21 61 18 166 -6 206 -11 18 -20 39 -20 47 0 20 -85 105 -137 138 -91 58 -210 78 -348 60z m238 -129 c18 -9 39 -21 47 -25 8 -5 24 -13 35 -18 54 -24 95 -100 95 -174 0 -132 -111 -257 -286 -323 -55 -20 -82 -24 -182 -24 -102 0 -123 3 -169 24 -69 33 -129 94 -143 148 -27 97 20 208 122 289 48 38 75 53 188 102 51 23 250 23 293 1z m247 -764 c182 -42 356 -180 448 -355 35 -66 52 -107 52 -124 0 -9 7 -29 15 -45 21 -40 21 -302 0 -353 -8 -19 -15 -42 -15 -49 0 -23 -61 -145 -103 -207 -39 -57 -128 -143 -197 -189 -19 -13 -62 -34 -95 -47 -33 -13 -68 -27 -77 -32 -10 -5 -26 -9 -37 -9 -11 0 -47 -7 -80 -16 -55 -14 -67 -14 -122 0 -33 9 -73 16 -89 16 -16 0 -41 6 -57 14 -15 8 -57 29 -93 46 -36 18 -76 42 -90 55 -14 12 -32 26 -41 31 -26 14 -105 111 -143 175 -19 32 -49 100 -67 151 -29 86 -32 103 -32 223 -1 162 21 238 120 420 21 39 173 191 204 205 13 6 44 22 68 35 24 14 51 25 59 25 9 0 23 6 31 14 32 29 241 39 341 16z"/> <path d="M6527 2334 c-90 -18 -151 -52 -229 -130 -101 -99 -142 -195 -157 -364 -19 -227 59 -436 231 -616 89 -93 220 -167 288 -163 19 2 48 -1 63 -5 39 -12 161 19 217 54 80 51 154 142 199 243 45 100 54 161 48 299 -4 101 -10 138 -34 208 -16 47 -42 103 -56 124 -15 21 -27 43 -27 48 0 18 -90 126 -146 177 -31 27 -89 66 -128 85 -64 30 -90 38 -176 50 -14 2 -56 -2 -93 -10z m149 -118 c85 -22 152 -66 225 -145 80 -87 128 -179 158 -303 31 -129 27 -223 -17 -364 -33 -107 -134 -200 -249 -229 -57 -15 -67 -14 -124 0 -97 25 -164 66 -237 145 -45 47 -112 150 -112 171 0 9 -6 22 -14 28 -8 6 -16 24 -19 39 -35 172 -38 192 -33 268 9 132 55 240 133 319 73 72 183 99 289 71z"/> <path d="M3270 1393 c-62 -10 -128 -34 -134 -48 -3 -8 -16 -15 -28 -15 -29 0 -137 -86 -177 -142 -53 -73 -118 -218 -130 -289 -35 -206 15 -433 132 -606 52 -77 188 -206 255 -241 34 -18 62 -37 62 -43 0 -5 83 -9 203 -9 198 0 202 0 212 22 6 12 24 26 40 31 101 32 234 212 281 377 24 90 25 291 0 375 -43 143 -70 206 -113 258 -13 16 -23 35 -23 42 0 8 -8 17 -17 20 -10 3 -39 33 -65 65 -112 139 -336 230 -498 203z m190 -135 c93 -26 149 -63 243 -162 68 -71 157 -223 157 -270 1 -12 7 -32 15 -46 21 -37 20 -268 -1 -335 -60 -185 -179 -307 -336 -344 -201 -48 -438 95 -553 334 -101 208 -106 413 -15 601 54 110 186 224 261 224 13 0 31 5 39 10 20 14 120 7 190 -12z"/> <path d="M2098 1251 c-70 -23 -140 -87 -197 -180 -27 -45 -33 -66 -38 -135 -5 -81 14 -187 38 -201 5 -4 9 -14 9 -23 0 -21 115 -139 144 -148 12 -3 31 -16 43 -27 18 -16 40 -21 101 -25 72 -4 83 -2 137 26 74 37 126 96 169 190 28 61 32 81 30 139 -1 38 -7 87 -13 111 -24 88 -129 210 -218 252 -52 25 -159 36 -205 21z m133 -113 c61 -14 134 -78 168 -148 27 -56 30 -189 5 -241 -53 -110 -172 -158 -268 -109 -60 30 -116 88 -142 147 -31 70 -33 168 -4 228 35 73 109 129 177 134 6 1 35 -4 64 -11z"/> </g> </svg> 